<svg height="511pt" viewBox="0 0 511 511.99687" width="511pt" xmlns="http://www.w3.org/2000/svg"><path d="m196.761719 264.535156h-187.730469v-255.996094h136.53125l25.601562 25.597657 25.597657 25.601562zm0 0" fill="#e7eced"/><path d="m196.761719 59.738281h-51.199219v-51.199219l25.601562 25.597657zm0 0" fill="#afb6bb"/><path d="m503.957031 503.464844h-187.730469v-255.996094h136.53125l51.199219 51.199219zm0 0" fill="#e7eced"/><path d="m503.957031 298.667969h-51.199219v-51.199219zm0 0" fill="#afb6bb"/><g fill="#4d007e"><path d="m196.761719 273.066406h-187.730469c-4.710938 0-8.53125-3.8125-8.53125-8.53125v-255.996094c0-4.71875 3.820312-8.53515575 8.53125-8.53515575h136.53125c2.261719 0 4.4375.89843775 6.03125 2.49999975l51.199219 51.199219c1.605469 1.597656 2.503906 3.765625 2.503906 6.035156v204.796875c0 4.710938-3.824219 8.53125-8.535156 8.53125zm-179.195313-17.066406h170.664063v-192.730469l-46.199219-46.199219h-124.464844zm0 0"/><path d="m196.761719 68.269531h-51.199219c-4.710938 0-8.53125-3.8125-8.53125-8.53125v-51.199219c0-3.449218 2.082031-6.570312 5.261719-7.886718 3.183593-1.328125 6.863281-.5859378 9.300781 1.851562l51.199219 51.199219c2.441406 2.441406 3.175781 6.113281 1.855469 9.304687-1.324219 3.191407-4.429688 5.261719-7.886719 5.261719zm-42.664063-17.066406h22.066406l-22.066406-22.066406zm0 0"/><path d="m119.964844 136.535156h-76.800782c-4.710937 0-8.53125-3.8125-8.53125-8.53125s3.820313-8.535156 8.53125-8.535156h76.800782c4.707031 0 8.53125 3.816406 8.53125 8.535156s-3.824219 8.53125-8.53125 8.53125zm0 0"/><path d="m162.628906 136.535156h-8.53125c-4.710937 0-8.535156-3.8125-8.535156-8.53125s3.824219-8.535156 8.535156-8.535156h8.53125c4.710938 0 8.535156 3.816406 8.535156 8.535156s-3.824218 8.53125-8.535156 8.53125zm0 0"/><path d="m119.964844 204.800781h-76.800782c-4.710937 0-8.53125-3.8125-8.53125-8.53125s3.820313-8.535156 8.53125-8.535156h76.800782c4.707031 0 8.53125 3.816406 8.53125 8.535156s-3.824219 8.53125-8.53125 8.53125zm0 0"/><path d="m162.628906 204.800781h-8.53125c-4.710937 0-8.535156-3.8125-8.535156-8.53125s3.824219-8.535156 8.535156-8.535156h8.53125c4.710938 0 8.535156 3.816406 8.535156 8.535156s-3.824218 8.53125-8.535156 8.53125zm0 0"/><path d="m239.429688 452.265625h-136.53125c-4.710938 0-8.535157-3.816406-8.535157-8.535156s3.824219-8.53125 8.535157-8.53125h136.53125c4.707031 0 8.53125 3.8125 8.53125 8.53125s-3.824219 8.535156-8.53125 8.535156zm0 0"/><path d="m102.898438 452.265625c-4.710938 0-8.535157-3.816406-8.535157-8.535156v-136.53125c0-4.71875 3.824219-8.53125 8.535157-8.53125 4.707031 0 8.53125 3.8125 8.53125 8.53125v136.53125c0 4.710937-3.824219 8.535156-8.53125 8.535156zm0 0"/><path d="m162.628906 170.667969h-76.796875c-4.710937 0-8.535156-3.8125-8.535156-8.53125s3.824219-8.535157 8.535156-8.535157h76.796875c4.710938 0 8.535156 3.816407 8.535156 8.535157s-3.824218 8.53125-8.535156 8.53125zm0 0"/><path d="m51.699219 170.667969h-8.535157c-4.710937 0-8.53125-3.8125-8.53125-8.53125s3.820313-8.535157 8.53125-8.535157h8.535157c4.707031 0 8.53125 3.816407 8.53125 8.535157s-3.824219 8.53125-8.53125 8.53125zm0 0"/><path d="m503.957031 511.996094h-187.730469c-4.710937 0-8.535156-3.8125-8.535156-8.53125v-255.996094c0-4.71875 3.824219-8.535156 8.535156-8.535156h136.53125c2.261719 0 4.4375.898437 6.03125 2.5l51.199219 51.199218c1.605469 1.597657 2.5 3.765626 2.5 6.035157v204.796875c0 4.710937-3.820312 8.53125-8.53125 8.53125zm-179.199219-17.066406h170.664063v-192.730469l-46.195313-46.199219h-124.46875zm0 0"/><path d="m503.957031 307.199219h-51.199219c-4.710937 0-8.535156-3.8125-8.535156-8.53125v-51.199219c0-3.449219 2.082032-6.570312 5.265625-7.886719 3.191407-1.328125 6.863281-.585937 9.300781 1.851563l51.199219 51.199218c2.441407 2.441407 3.175781 6.109376 1.851563 9.300782-1.320313 3.191406-4.425782 5.265625-7.882813 5.265625zm-42.667969-17.066407h22.070313l-22.070313-22.066406zm0 0"/><path d="m239.429688 452.265625c-2.1875 0-4.371094-.835937-6.035157-2.5l-34.132812-34.132813c-3.335938-3.335937-3.335938-8.730468 0-12.066406 3.328125-3.335937 8.738281-3.335937 12.066406 0l34.132813 34.132813c3.335937 3.335937 3.335937 8.730469 0 12.066406-1.664063 1.664063-3.847657 2.5-6.03125 2.5zm0 0"/><path d="m205.296875 486.398438c-2.1875 0-4.371094-.835938-6.035156-2.5-3.335938-3.335938-3.335938-8.730469 0-12.066407l34.132812-34.132812c3.328125-3.335938 8.738281-3.335938 12.066407 0 3.335937 3.335937 3.335937 8.730469 0 12.066406l-34.132813 34.132813c-1.664063 1.664062-3.847656 2.5-6.03125 2.5zm0 0"/><path d="m393.023438 76.804688h-136.527344c-4.710938 0-8.535156-3.816407-8.535156-8.535157s3.824218-8.53125 8.535156-8.53125h136.527344c4.710937 0 8.535156 3.8125 8.535156 8.53125s-3.824219 8.535157-8.535156 8.535157zm0 0"/><path d="m393.023438 213.335938c-4.707032 0-8.53125-3.816407-8.53125-8.535157v-136.53125c0-4.71875 3.824218-8.53125 8.53125-8.53125 4.710937 0 8.535156 3.8125 8.535156 8.53125v136.53125c0 4.710938-3.824219 8.535157-8.535156 8.535157zm0 0"/><path d="m290.625 110.9375c-2.183594 0-4.367188-.835938-6.03125-2.5l-34.132812-34.132812c-3.335938-3.335938-3.335938-8.730469 0-12.066407 3.328124-3.335937 8.738281-3.335937 12.066406 0l34.132812 34.132813c3.335938 3.335937 3.335938 8.730468 0 12.066406-1.664062 1.664062-3.847656 2.5-6.035156 2.5zm0 0"/><path d="m256.496094 76.804688c-2.1875 0-4.371094-.835938-6.035156-2.5-3.335938-3.335938-3.335938-8.730469 0-12.066407l34.132812-34.132812c3.328125-3.335938 8.738281-3.335938 12.066406 0 3.335938 3.335937 3.335938 8.730469 0 12.066406l-34.132812 34.132813c-1.664063 1.664062-3.847656 2.5-6.03125 2.5zm0 0"/><path d="m469.824219 477.863281h-119.464844c-4.710937 0-8.535156-3.8125-8.535156-8.53125v-136.53125c0-4.71875 3.824219-8.535156 8.535156-8.535156h119.464844c4.710937 0 8.53125 3.816406 8.53125 8.535156v136.53125c0 4.710938-3.820313 8.53125-8.53125 8.53125zm-110.933594-17.066406h102.398437v-119.464844h-102.398437zm0 0"/><path d="m384.492188 375.464844h-34.132813c-4.710937 0-8.535156-3.8125-8.535156-8.53125v-34.132813c0-4.71875 3.824219-8.535156 8.535156-8.535156h34.132813c4.710937 0 8.53125 3.816406 8.53125 8.535156v34.132813c0 4.710937-3.820313 8.53125-8.53125 8.53125zm-25.601563-17.066406h17.066406v-17.066407h-17.066406zm0 0"/><path d="m469.824219 375.464844h-85.332031c-4.710938 0-8.535157-3.8125-8.535157-8.53125v-34.132813c0-4.71875 3.824219-8.535156 8.535157-8.535156h85.332031c4.710937 0 8.53125 3.816406 8.53125 8.535156v34.132813c0 4.710937-3.820313 8.53125-8.53125 8.53125zm-76.800781-17.066406h68.265624v-17.066407h-68.265624zm0 0"/><path d="m384.492188 409.597656h-34.132813c-4.710937 0-8.535156-3.8125-8.535156-8.53125v-34.132812c0-4.71875 3.824219-8.535156 8.535156-8.535156h34.132813c4.710937 0 8.53125 3.816406 8.53125 8.535156v34.132812c0 4.710938-3.820313 8.53125-8.53125 8.53125zm-25.601563-17.066406h17.066406v-17.066406h-17.066406zm0 0"/><path d="m469.824219 409.597656h-85.332031c-4.710938 0-8.535157-3.8125-8.535157-8.53125v-34.132812c0-4.71875 3.824219-8.535156 8.535157-8.535156h85.332031c4.710937 0 8.53125 3.816406 8.53125 8.535156v34.132812c0 4.710938-3.820313 8.53125-8.53125 8.53125zm-76.800781-17.066406h68.265624v-17.066406h-68.265624zm0 0"/><path d="m384.492188 443.730469h-34.132813c-4.710937 0-8.535156-3.8125-8.535156-8.53125v-34.132813c0-4.71875 3.824219-8.535156 8.535156-8.535156h34.132813c4.710937 0 8.53125 3.816406 8.53125 8.535156v34.132813c0 4.710937-3.820313 8.53125-8.53125 8.53125zm-25.601563-17.066407h17.066406v-17.066406h-17.066406zm0 0"/><path d="m469.824219 443.730469h-85.332031c-4.710938 0-8.535157-3.8125-8.535157-8.53125v-34.132813c0-4.71875 3.824219-8.535156 8.535157-8.535156h85.332031c4.710937 0 8.53125 3.816406 8.53125 8.535156v34.132813c0 4.710937-3.820313 8.53125-8.53125 8.53125zm-76.800781-17.066407h68.265624v-17.066406h-68.265624zm0 0"/></g></svg>